<svg id="Layer_1" data-name="Layer 1" xmlns="http://www.w3.org/2000/svg" viewBox="0 0 637.11 531.73"><defs><style>.cls-1{fill:#452a31;stroke:#452a31;stroke-miterlimit:10;stroke-width:7px;}</style></defs><title>main--logo--icon</title><path class="cls-1" d="M461.27,772.9c-6.84-1.31-13.63-3-20.53-3.86-41-4.94-80-15.59-113.81-40.55-28.09-20.75-46.59-48.17-56-81.83-8.94-32-9-64.35-4.19-96.93.32-2.19.53-4.4.87-6.59.66-4.3-.86-6.37-5.45-7.19-34.09-6.1-58.16-25.11-71.2-57.22-6.38-15.7-6.92-31.92-2.37-48.61,16.2-59.44,52.4-104.89,99.86-142,20.86-16.31,45.49-24.22,72.31-20.87,10.11,1.26,20,5,29.66,8.73,4.17,1.6,7,2.26,10.94-.25,20-12.84,42.07-19.86,65.49-24.3a187,187,0,0,1,55.52-2.09c26.17,2.88,52,9.06,74.54,23.93,5.39,3.55,9.59,3.41,15.12.32,16.91-9.44,35.1-11.46,54.08-8.08,35.68,6.35,61.55,28.11,84.67,53.95,20.77,23.21,39.08,48.22,52,76.79,7.64,16.88,13.43,34.39,12.9,53.15-1,35-18.61,59.78-49.07,75.59-7.72,4-16.58,6-25.14,8.06-5.79,1.36-7.43,3.77-7,9.64,1.6,20.06,4.23,40.23,3.58,60.26-2.09,64.94-31.87,113.19-90.4,142.52a208.43,208.43,0,0,1-64.39,20.12c-12.06,1.72-24.15,3.19-36.2,5-2.06.31-4,1.55-6,2.37Zm61.45-92.22q0,20,0,39.93c0,8.22.29,8.66,8.76,8.23,30.71-1.56,60.75-6.35,89.35-18.32,39.82-16.66,65.28-45.65,72.62-88.28,6.74-39.2,1.26-77.69-12.38-115-10.54-28.89-20.77-57.91-31.25-86.83-9.6-26.51-20.52-52.38-37.32-75.35-18.93-25.9-43.52-42.86-75.2-49.76-18.52-4-37.1-4-55.61-2.55C453,295,427.55,305.69,406.65,326c-27.21,26.4-41.46,60.29-54.21,95-9.46,25.75-18,51.85-27.81,77.47-12.51,32.72-19.29,66.26-17.88,101.39,1.63,40.45,16,74.44,50.52,97.5,35.36,23.59,75.78,29.68,117.15,31.67,4.7.22,5.22-2.9,5.22-6.63-.05-27.06-.11-54.12.08-81.18,0-5-1.67-7.94-6.17-10.48-18.95-10.68-33-25.67-40.43-46.6a49.89,49.89,0,0,1,37.94-65.88c20.11-3.74,40.1-4.12,60.13.05,32.35,6.74,48,35.6,37.79,66.84-6.81,20.83-21.61,35.37-40.36,45.82-4.74,2.65-6,5.66-6,10.54C522.85,654.5,522.73,667.59,522.72,680.68ZM773.64,447.54c-2.08-8.33-3.14-17.08-6.4-24.91-16.13-38.78-41.25-71.14-73.27-98-12.87-10.79-27.74-18.35-45.39-17.55-2.43.11-4.8,1.4-7.2,2.14,1,2.12,1.54,4.51,2.91,6.3,16,20.93,28.24,44,37.59,68.48C695,418.29,707,453,719.75,487.39c.81,2.19,4.36,4.81,6.61,4.78C751.9,491.86,774.11,470.07,773.64,447.54ZM229.35,451c.18,2.48.34,5.58.68,8.66a13.88,13.88,0,0,0,1.05,3.83c8.2,19.18,23.13,29.16,43.56,30.85,2.38.2,6.53-2.5,7.38-4.79,11.5-30.87,22.46-62,33.77-92.91,10.14-27.74,22.75-54.26,40.32-78.2,1.48-2,2.34-4.49,3.48-6.76-2.81-.86-5.65-2.51-8.45-2.45-14.93.33-28.09,6.06-39.72,15-28.2,21.66-49.58,49.2-67,79.92C236.36,418.46,229.53,433.39,229.35,451ZM529.11,568.43c0-6.36-4.46-8.76-8.68-8.94-12.77-.56-25.65-1-38.34.19-8.66.8-11.49,7.28-6.51,14.46,4.68,6.75,11,12.48,17.25,18,5.25,4.62,11.34,4.15,17.11.12C518.8,586,526.55,579,529.11,568.43Z" transform="translate(-182.12 -244.66)"/><path class="cls-1" d="M538.38,437.44c0-6.21-.29-12.43.07-18.62.53-9.2,8.38-17.51,17.07-18.65,11-1.45,20.13,3.49,23.54,13a27.25,27.25,0,0,1,1.82,8.39c.21,10.64.42,21.3,0,31.93-.52,13.14-10,22.06-22.13,21.59s-20.22-9.1-20.52-22.3c-.12-5.1,0-10.2,0-15.3Z" transform="translate(-182.12 -244.66)"/><path class="cls-1" d="M463.76,437.65c0,5.32.12,10.64,0,16-.35,12.5-8.66,21-20.74,21.45a20.56,20.56,0,0,1-21.64-19.83,313.32,313.32,0,0,1,0-35.21c.71-12.75,10.06-20.5,22.65-20,11.14.43,19.46,9.51,19.75,21.68C463.86,427,463.75,432.34,463.76,437.65Z" transform="translate(-182.12 -244.66)"/></svg>